<svg xmlns="http://www.w3.org/2000/svg" viewBox="0 0 200 200">
	<g id="palettes_icon">
		<path fill="#E46725" d="M98.839,61.83c-5.683,0-5.537,1.749-5.537,4.663v21.856c0,3.06-1.312,6.411,6.557,6.411
			c9.617,0,13.405-7.285,13.405-16.173C113.264,69.407,108.602,61.83,98.839,61.83z M172.861,49.203
			C137.765,5.582,76.08-6.396,35.114,22.45C-5.847,51.298-6.673,116.262,30.71,153.912c33.88,34.114,80.604,49.109,119.671,32.666
			c4.041-1.707,17.408-6.939,16.61-25.538c-0.325-7.724-11.936-30.691-11.662-39.603c0.312-10.106,6.425-22.553,19.15,1.779
			c7.626,14.58,19.33,5.507,20.752-1.587C199.521,100.168,193.15,74.426,172.861,49.203z M108.31,111.37
			c-4.371,0-8.742-0.729-12.676-0.729c-1.748,0-2.331,0.729-2.331,2.331v8.451c0.437,18.213,11.074,10.637,11.074,19.087
			c0,9.472-20.982,9.908-27.539,9.908c-6.12,0-27.684-0.146-27.684-9.616c0-8.014,10.636-3.06,10.636-15.008V68.824
			c0-10.928-13.55-6.12-13.55-15.299c0-5.828,6.411-7.14,10.928-7.14c3.643,0,7.14,0.292,10.782,0.292
			c21.127,0,33.949-2.04,40.069-2.04c19.816,0,38.903,11.511,38.903,33.367C146.922,99.713,128.563,111.37,108.31,111.37z"/>
	</g>
</svg>
